<svg width="901" height="402" viewBox="0 0 901 402" fill="none" xmlns="http://www.w3.org/2000/svg">
<path d="M534.106 139.612C546.764 139.309 560.279 139.575 573.063 139.49L573.116 204.757C573.129 213.234 573.64 233.775 572.258 241.245C571.11 247.427 568.483 253.234 564.608 258.179C548.994 277.937 512.153 279.107 493.122 263.898C469.189 282.178 421.63 276.793 414.49 243.212C412.106 231.998 413.174 213.96 413.192 201.871L413.218 139.616C425.681 139.21 439.575 139.615 452.282 139.478L452.273 205.087C452.269 214.62 452.022 224.462 452.506 233.868C452.823 240.062 462.22 241.219 466.699 240.141C470.315 239.266 471.745 237.779 473.601 234.84L473.593 139.584C486.434 139.352 499.668 139.618 512.607 139.486C513.029 146.528 512.717 157.049 512.712 164.408V212.478C512.725 218.747 512.602 224.932 512.677 231.276C512.747 237.369 515.994 240.11 522.083 240.458C527.864 240.788 533.741 239.182 533.992 232.398C534.291 224.347 534.168 216.208 534.164 208.1L534.137 157.767L534.106 139.612Z" fill="#008836"/>
<path d="M296.136 139.553C310.391 139.758 324.603 139.582 338.978 139.604C358.572 139.574 384.183 137.036 396.192 156.479C405.82 172.067 402.604 191.84 386.773 201.773C406.174 213.005 409.545 233.718 399.903 252.978C386.612 274.865 363.307 271.971 341.167 271.957C326.129 271.891 311.091 271.927 296.054 272.054C296.333 228.1 295.489 183.382 296.136 139.553ZM334.832 242.384C339.38 242.42 343.957 242.477 348.502 242.512C354.278 242.556 357.731 242.934 362.338 239.023C363.55 237.176 364.516 235.733 364.854 233.467C368.189 211.184 347.541 219.028 334.759 217.435C334.894 225.75 334.919 234.065 334.832 242.384ZM334.86 192.226C341.759 192.255 354.819 193.708 359.287 189.294C359.531 189.052 359.77 188.805 360.004 188.554C363.202 183.838 363.604 173.357 358.105 170.304C351.88 166.847 341.864 169.573 334.777 168.663C334.894 176.517 334.922 184.372 334.86 192.226Z" fill="#FDBD00"/>
<path d="M630.731 136.164C646.239 133.6 668.526 139.022 680.057 150.174C684.87 154.739 688.288 160.578 689.907 167.01C692.274 176.416 691.311 194.147 691.465 204.422C691.803 226.736 691.016 249.653 691.447 271.953C678.764 271.843 665.02 271.711 652.398 272.032L652.376 233.696L647.264 233.665C639.345 233.634 631.43 233.661 623.511 233.749C623.868 237.11 623.714 243.669 623.718 247.294L623.679 271.962C610.647 271.852 597.616 271.856 584.585 271.98C585.131 243.018 584.357 213.877 584.656 184.897C584.708 179.599 584.59 175.348 585.593 170.082C589.961 147.12 609.464 138.295 630.731 136.164ZM623.591 203.234L640.775 203.243L652.455 203.234C652.394 196.609 652.38 189.436 652.565 182.851C652.891 171.316 645.94 168.461 635.742 169.124C618.302 171.636 624.14 188.922 623.591 203.234Z" fill="#008836"/>
<path d="M827.213 122.513C829.866 123.877 837.846 130.754 840.482 132.939C849.531 140.52 858.629 148.039 867.784 155.493C854.283 166.393 840.741 177.863 827.283 188.893C827.028 183.383 827.156 177.562 827.178 172.026C823.57 171.989 819.897 171.902 816.289 171.945C813.566 171.977 807.332 171.236 807.099 175.086C806.303 188.155 809.488 201.611 802.563 213.604C796.149 224.721 785.77 230.317 773.725 233.687C773.998 246.265 773.808 259.345 773.782 271.967C761.209 271.808 746.743 271.663 734.249 272.055C734.205 267.792 734.689 235.284 733.725 233.643C725.6 231.188 717.36 227.33 711.249 221.325C706.599 216.789 703.308 211.048 701.742 204.748C699.806 197.133 700.378 183.21 700.387 174.802L700.343 139.645C711.566 139.028 727.245 139.594 739.062 139.483V174.853C739.062 180.315 738.032 196.217 741.864 198.47C755.595 206.547 770.606 203.094 768.481 185.006C767.06 172.89 768.732 155.058 776.914 146.922C787.891 136.008 812.51 138.712 827.226 138.756C827.068 133.403 827.178 127.88 827.213 122.513Z" fill="#008836"/>
<path d="M245.059 139.536C258.165 139.656 271.272 139.636 284.377 139.477C285.015 148.753 284.577 163.473 284.565 173.164L284.574 180.918L284.601 211.597C284.605 220.537 285.269 237.132 282.496 245.205C270.252 280.294 211.329 283.506 187.571 259.771C176.97 249.344 176.927 237.541 177.106 223.7C177.468 195.694 176.644 167.488 177.083 139.505C189.748 139.837 203.32 139.617 216.017 139.494L216.012 201.681C216.01 210.102 215.46 228.328 216.894 235.491C223.068 242.882 234.978 243.898 242.467 237.391C243.324 236.648 244.626 234.501 244.712 233.344C245.433 223.669 245.132 213.753 245.128 204.03L245.059 139.536Z" fill="#FDBD00"/>
<path d="M109.336 139.689C115.812 138.933 129.247 139.35 136.163 139.447C143.991 139.557 156.479 139.302 163.967 140.082C163.451 146.763 163.349 165.406 163.969 172.042C147.825 171.6 131.617 171.486 115.477 171.211C109.385 171.108 107.337 177.963 111.238 180.486C127.1 190.746 147.023 195.394 160.954 208.672C172.056 219.063 173.22 239.287 166.334 252.257C154.931 273.73 130.022 271.702 109.754 271.623L74.4302 271.434C74.7131 276.863 74.5908 282.23 74.3937 287.655L73.8107 288.011C70.6885 286.845 38.9089 259.679 34.0132 255.543C36.8927 251.984 69.6471 225.183 74.2489 222.205C74.5221 227.075 74.9722 234.791 74.3233 239.455C91.8118 239.719 110.409 240.115 127.848 239.771C129.761 238.548 132.578 236.595 132.19 234.065C131.029 228.109 121.273 224.787 116.411 222.385C96.5179 212.57 72.5855 205.056 71.2058 178.999C69.9617 155.504 86.9426 141.047 109.336 139.689Z" fill="#FDBD00"/>
<path d="M803.918 261.14C806.131 262.891 805.168 268.909 804.2 271.307L803.755 271.364C803.28 268.315 803.553 266.511 803.826 263.445C802.818 265.46 801.622 269.098 799.334 269.411C797.601 268.346 796.611 265.997 795.485 264.105C795.595 266.731 795.85 268.548 795.111 271.06L794.653 270.682C793.786 267.127 794.055 263.955 794.156 260.317C797.046 263.119 797.939 265.015 799.686 268.509C800.768 266.01 802.356 263.366 803.918 261.14Z" fill="#008836" fill-opacity="0.980392"/>
<path d="M783.813 262.015C785.92 261.887 791.248 261.395 792.862 262.464L792.48 263.036C791.261 263.19 790.491 263.238 789.286 263.291C788.617 264.391 788.978 267.294 789.044 268.759C789.061 270.031 789.18 270.708 788.67 271.883L788.115 271.804C787.152 270.308 787.649 265.992 787.345 263.414C786.162 263.225 785.405 263.15 784.231 263.058L783.813 262.015Z" fill="#008836" fill-opacity="0.988235"/>
</svg>
