<svg width="226" height="86" viewBox="0 0 226 86" fill="none" xmlns="http://www.w3.org/2000/svg">
<path d="M113.189 19.4418C113.447 19.4187 113.704 19.4 113.962 19.386C114.542 19.354 115.215 19.357 115.808 19.3732C124.931 19.6106 136.279 18.2298 143.699 24.7877C149.876 30.2477 149.506 41.7368 148.309 49.1835C147.703 52.9506 146.005 56.0677 143.471 58.8674C137.314 64.5972 124.868 64.2355 116.717 64.0592L116.672 41.5928C116.696 35.7361 116.816 29.9116 116.657 24.0545C116.551 20.141 113.86 21.0258 113.189 19.4418Z" fill="#20477C"/>
<path d="M124.796 23.322C128.459 23.4008 132.802 22.7099 135.737 25.3011C140.904 29.8646 140.914 37.394 140.692 43.7465C140.519 48.7046 139.693 52.7429 136.415 56.5544C132.745 60.3508 129.726 60.4456 124.662 60.793C124.596 53.0051 124.6 45.2166 124.675 37.4286C124.688 33.1946 124.521 27.4629 124.796 23.322Z" fill="#FFFEFE"/>
<path d="M69.7324 19.7418C71.6964 19.6055 73.8114 19.6527 75.7363 19.3486L75.7557 22.81L75.756 41.7037C75.7708 55.355 76.6971 66.0327 58.2967 63.7755C46.5873 62.3392 46.8353 53.5922 46.8188 44.131L46.8131 29.9581C46.8204 27.9153 46.996 24.8047 46.4635 22.9078C46.1281 21.7139 44.4184 20.58 43.582 19.4384C46.7844 19.3118 51.7098 19.5445 55.104 19.5752C54.9764 26.6764 54.9233 33.7785 54.9448 40.8808C54.9419 44.3633 54.9275 47.8759 54.9929 51.3147C54.9976 55.629 57.8712 60.8569 62.756 60.4653C66.816 60.1399 69.8208 55.7787 69.8622 51.9947C69.9018 48.3517 69.9697 44.4906 69.8915 40.8717C69.7406 33.8836 70.1423 26.6944 69.7324 19.7418Z" fill="#20477C"/>
<path d="M88.3004 19.4385C91.162 19.3428 94.2049 19.381 97.0803 19.3711C97.685 22.4199 100.158 28.0547 101.387 31.186L108.048 48.506C109.976 53.4934 111.563 59.4594 114.017 64.1977L106.266 64.1566C106.067 63.5457 105.406 61.8254 105.178 61.2793C104.26 59.0778 99.8946 45.0706 98.4777 44.5287C95.2276 44.5152 91.9776 44.5401 88.7281 44.6033C87.2431 46.5767 85.5139 52.9753 84.7072 55.5152C83.6452 58.8573 82.9343 61.2482 81.5007 64.5231C79.9213 64.2655 77.0582 64.0149 75.4961 63.9833C78.2703 59.4184 78.8156 55.8847 80.6849 51.057L86.9731 34.7462C88.3378 31.2565 90.501 26.8146 91.0082 23.1618C90.1825 21.391 88.8192 20.708 88.3004 19.4385Z" fill="#20477C"/>
<path d="M93.2599 29.9775C94.5837 30.7948 96.8096 39.2492 97.3779 41.1913L94.0162 41.2356C92.7107 41.2683 91.3868 41.2143 90.0801 41.1759C90.7644 37.8803 92.1493 33.1682 93.2599 29.9775Z" fill="#FFFEFE"/>
<path d="M151.33 19.2549C154.37 19.4923 158.025 19.396 161.104 19.3972L178.344 19.3901L178.243 23.5372C175.236 23.4263 165.222 23.2925 162.571 23.6803C162.384 27.9324 162.418 33.0933 162.522 37.336C165.433 37.6555 170.95 37.4227 174.045 37.369C174.026 38.7955 173.999 40.222 173.965 41.6483C170.282 41.4283 166.338 41.1244 162.669 41.0448C162.392 44.2639 162.499 48.1808 162.562 51.4248C162.612 54.048 162.722 56.6697 162.892 59.2878C167.991 59.7842 173.046 59.5073 178.172 59.6281C178.177 61.1408 178.138 62.706 178.12 64.2235C170.647 63.9201 162.039 64.1396 154.487 64.1723L154.478 39.9161C154.477 35.7312 154.834 24.9911 153.741 21.5199C151.955 20.8742 151.592 21.1246 151.33 19.2549Z" fill="#20477C"/>
</svg>
